<?xml version="1.0" standalone="no"?>
<!DOCTYPE svg PUBLIC "-//W3C//DTD SVG 20010904//EN"
 "http://www.w3.org/TR/2001/REC-SVG-20010904/DTD/svg10.dtd">
<svg version="1.0" xmlns="http://www.w3.org/2000/svg"
 width="4096.000000pt" height="4096.000000pt" viewBox="0 0 4096.000000 4096.000000"
 preserveAspectRatio="xMidYMid meet">
<metadata>
Created by potrace 1.14, written by Peter Selinger 2001-2017
</metadata>
<g transform="translate(0.000000,4096.000000) scale(0.100000,-0.100000)"
fill="#000000" stroke="none">
<path d="M17270 37360 c-275 -17 -516 -61 -737 -135 -282 -94 -492 -218 -691
-408 -182 -175 -856 -790 -1592 -1453 -413 -372 -721 -646 -2070 -1843 -1188
-1054 -4021 -3596 -4425 -3970 -406 -375 -505 -464 -970 -867 -572 -496 -1460
-1290 -1549 -1385 -269 -290 -460 -777 -497 -1274 -42 -552 151 -1044 518
-1319 194 -146 426 -235 728 -282 147 -23 501 -23 678 -1 l128 16 177 139 c97
76 256 199 352 274 96 74 245 202 330 285 162 156 439 394 2935 2528 2290
1958 3106 2658 4240 3639 584 506 1648 1433 1800 1570 361 324 592 452 810
450 109 -1 170 -22 283 -97 160 -106 290 -253 1862 -2112 833 -984 2538 -3000
3790 -4480 1252 -1479 3191 -3772 4310 -5095 3546 -4193 3772 -4458 4056
-4785 442 -507 641 -740 909 -1066 517 -630 983 -1187 1398 -1671 242 -283
297 -334 437 -407 99 -51 198 -86 323 -113 137 -29 423 -31 567 -4 361 70 653
223 929 491 287 278 467 602 515 928 27 180 18 328 -30 496 -54 186 -95 246
-495 722 -319 379 -906 1090 -1499 1814 -782 956 -1337 1631 -1815 2210 -259
314 -830 1009 -1270 1545 -712 869 -1220 1487 -3065 3730 -278 338 -1153 1403
-1945 2365 -792 963 -1952 2373 -2579 3135 -627 762 -1985 2413 -3019 3670
-1033 1257 -1895 2300 -1915 2318 -82 75 -431 229 -687 302 -381 110 -850 163
-1225 140z"/>
<path d="M9465 25315 c-148 -24 -263 -62 -410 -135 -168 -83 -312 -188 -440
-321 -149 -154 -220 -292 -244 -474 -8 -56 -12 -2208 -16 -7165 -3 -4614 -8
-7176 -15 -7345 -11 -292 -36 -734 -50 -900 -26 -296 6 -534 103 -776 111
-277 288 -461 510 -533 123 -40 383 -103 503 -122 164 -26 633 -23 1134 7 381
23 438 24 1590 22 657 -1 2016 -6 3020 -12 3335 -19 8206 -33 10505 -29 2043
4 2286 6 2425 21 643 70 1014 214 1282 496 132 140 225 315 263 496 11 53 20
180 28 380 12 332 11 449 -4 539 -11 66 -23 921 -33 2291 -12 1505 -26 5717
-20 5769 8 71 -13 376 -32 465 -24 114 -70 247 -125 358 -179 365 -543 665
-924 762 -117 30 -205 41 -341 41 -519 1 -1005 -304 -1232 -772 -102 -211
-113 -290 -63 -463 l29 -100 7 -1700 c4 -935 9 -1709 11 -1720 2 -10 5 -269 6
-575 2 -691 12 -1378 32 -2200 8 -349 16 -754 18 -900 l3 -265 -1030 -3 c-940
-3 -1540 3 -2840 28 -696 14 -2978 29 -5835 41 -1411 5 -2770 14 -3020 19
-1115 23 -1559 31 -2193 37 -625 6 -681 8 -700 24 l-22 17 -6 1229 c-7 1152
-14 1623 -39 2348 -17 476 -30 1470 -40 2975 -8 1297 -15 1695 -40 2445 -24
734 -51 2883 -49 3945 1 676 -2 908 -11 949 -89 388 -505 683 -1125 797 -125
23 -450 28 -570 9z"/>
</g>
</svg>
