<?xml version="1.0" encoding="UTF-8" standalone="no"?>
<!DOCTYPE svg PUBLIC "-//W3C//DTD SVG 1.0//EN" "http://www.w3.org/TR/2001/REC-SVG-20010904/DTD/svg10.dtd">
<svg xmlns="http://www.w3.org/2000/svg" version="1.0" viewBox="0.00 0.00 186.00 165.00">
<path fill="#373737" d="
  M 10.76 155.25
  L 176.37 155.25
  A 0.56 0.55 -0.5 0 0 176.93 154.69
  L 175.59 29.04
  A 0.89 0.89 0.0 0 0 174.65 28.16
  C 172.89 28.27 167.29 28.47 166.16 26.81
  Q 163.75 23.25 166.60 20.41
  Q 166.95 20.06 167.45 20.05
  C 173.85 19.96 183.18 18.40 183.29 25.91
  Q 184.25 89.70 184.68 153.50
  C 184.71 157.37 187.19 162.80 180.50 162.81
  Q 93.92 163.00 7.35 163.00
  C 4.76 163.00 2.79 161.99 2.78 159.25
  Q 2.68 138.71 2.10 118.18
  C 1.19 85.87 1.83 53.45 1.18 26.00
  C 1.09 22.19 2.77 20.51 6.61 21.18
  Q 10.49 21.85 14.42 21.37
  Q 14.94 21.31 14.98 20.79
  C 15.77 11.79 23.62 2.23 32.58 1.21
  C 44.45 -0.14 48.50 16.88 48.56 25.89
  C 48.62 35.71 47.18 53.89 38.38 60.16
  C 26.86 68.36 17.90 48.97 28.15 50.54
  Q 28.68 50.62 29.06 50.99
  L 31.68 53.52
  A 1.92 1.91 -51.0 0 0 34.60 53.21
  Q 38.48 47.44 39.51 41.00
  Q 41.51 28.50 40.74 23.00
  C 40.16 18.86 38.08 10.75 34.31 9.07
  Q 33.84 8.87 33.35 8.99
  Q 25.88 10.95 24.38 18.52
  Q 24.28 19.01 23.98 19.41
  Q 23.48 20.07 23.26 20.88
  Q 23.11 21.46 23.71 21.47
  C 27.08 21.54 33.32 20.35 32.97 25.74
  Q 32.75 29.06 28.69 29.13
  Q 19.25 29.29 9.86 29.25
  A 0.60 0.59 -89.5 0 0 9.27 29.84
  C 9.04 71.51 10.51 113.09 10.24 154.72
  Q 10.24 155.25 10.76 155.25
  Z"
/>
<path fill="#373737" d="
  M 93.39 53.51
  C 98.93 45.65 99.61 35.82 99.76 26.55
  C 99.84 21.42 98.10 11.66 93.36 9.08
  Q 92.90 8.83 92.40 8.95
  C 88.71 9.82 83.77 13.49 83.73 17.86
  Q 83.72 18.48 84.34 18.49
  C 87.63 18.51 91.57 19.06 91.02 23.00
  C 90.52 26.60 87.92 26.15 84.67 26.13
  Q 70.70 26.04 56.75 26.53
  C 51.44 26.72 50.50 19.40 56.77 18.98
  Q 65.68 18.39 74.62 18.18
  Q 75.25 18.16 75.25 17.53
  L 75.25 15.79
  Q 75.25 15.29 75.45 14.83
  C 80.28 3.88 96.50 -7.06 103.76 9.47
  C 106.13 14.86 107.52 19.00 107.56 25.03
  Q 107.62 35.27 106.00 43.76
  C 104.16 53.38 96.17 69.48 84.02 58.25
  C 82.40 56.76 81.77 53.16 83.62 51.44
  C 86.62 48.66 88.91 51.91 90.91 53.77
  A 1.66 1.66 0.0 0 0 93.39 53.51
  Z"
/>
<path fill="#373737" d="
  M 132.84 18.92
  Q 131.71 16.54 132.45 14.72
  C 134.93 8.61 140.93 2.66 147.39 1.37
  C 156.69 -0.48 160.90 8.00 163.20 15.59
  C 166.34 25.97 164.64 55.77 152.64 61.18
  Q 146.23 64.06 140.82 57.96
  C 136.66 53.26 142.83 47.07 146.53 52.46
  Q 146.95 53.06 148.08 53.89
  Q 148.52 54.22 149.05 54.07
  C 155.36 52.24 156.86 31.58 156.81 26.43
  C 156.77 21.24 155.28 12.80 150.78 9.16
  Q 150.35 8.81 149.80 8.93
  Q 142.13 10.66 140.43 18.23
  Q 140.29 18.85 140.92 18.85
  C 144.73 18.86 151.36 19.31 148.94 24.68
  C 147.43 28.05 141.00 26.64 137.95 26.89
  Q 129.83 27.57 121.68 27.28
  C 118.83 27.18 110.59 28.73 111.76 22.97
  C 112.28 20.40 114.33 19.82 116.83 19.72
  Q 124.63 19.41 132.46 19.51
  Q 133.12 19.52 132.84 18.92
  Z"
/>
<rect fill="#373737" x="-49.24" y="-3.93" transform="translate(92.64,84.34) rotate(-0.2)" width="98.48" height="7.86" rx="3.88"/>
</svg>
