<?xml version="1.0" encoding="UTF-8" standalone="no"?>
<!DOCTYPE svg PUBLIC "-//W3C//DTD SVG 1.0//EN" "http://www.w3.org/TR/2001/REC-SVG-20010904/DTD/svg10.dtd">
<svg xmlns="http://www.w3.org/2000/svg" version="1.0" viewBox="0.00 0.00 142.00 141.00">
<path fill="#373737" d="
  M 137.31 0.00
  L 138.06 0.00
  C 142.71 0.39 141.86 4.95 139.55 7.30
  Q 109.01 38.26 78.41 69.28
  Q 77.62 70.09 78.42 70.89
  Q 109.58 101.61 140.66 132.46
  C 141.47 133.27 141.68 134.27 142.00 135.31
  L 142.00 135.81
  C 141.35 139.11 138.41 141.12 135.75 138.50
  Q 104.05 107.32 72.38 76.02
  A 0.56 0.56 0.0 0 0 71.58 76.02
  Q 41.53 106.79 11.29 137.29
  Q 8.98 139.63 8.02 140.00
  C 5.15 141.09 1.93 138.68 2.72 135.65
  Q 3.04 134.44 4.78 132.67
  Q 35.30 101.62 65.97 70.63
  A 0.66 0.65 -45.3 0 0 65.97 69.70
  Q 34.50 38.63 3.03 7.47
  C -0.37 4.10 3.31 -1.20 7.64 1.47
  Q 8.97 2.29 10.09 3.41
  Q 40.90 33.85 71.49 64.09
  A 0.71 0.71 0.0 0 0 72.49 64.08
  Q 103.54 32.42 134.78 1.03
  Q 135.28 0.53 137.31 0.00
  Z"
/>
</svg>
