<?xml version="1.0" encoding="UTF-8" standalone="no"?>
<!DOCTYPE svg PUBLIC "-//W3C//DTD SVG 1.0//EN" "http://www.w3.org/TR/2001/REC-SVG-20010904/DTD/svg10.dtd">
<svg xmlns="http://www.w3.org/2000/svg" version="1.0" viewBox="0.00 0.00 147.00 155.00">
<path fill="#373737" d="
  M 103.31 0.00
  L 110.56 0.00
  C 121.40 3.03 129.00 15.00 120.99 24.96
  Q 79.94 76.06 39.06 127.31
  C 37.66 129.07 35.73 131.14 33.64 132.52
  Q 22.17 140.09 10.77 147.78
  Q 8.77 149.13 4.29 149.71
  Q 3.79 149.77 3.34 149.52
  C -0.95 147.13 1.16 143.96 1.89 140.41
  Q 4.50 127.68 7.43 117.93
  C 8.57 114.14 10.54 110.52 13.23 107.15
  Q 53.21 57.05 93.20 6.95
  Q 97.57 1.48 103.31 0.00
  Z
  M 97.56 14.79
  L 109.54 25.40
  A 0.68 0.68 0.0 0 0 110.50 25.34
  L 113.54 21.90
  A 8.79 8.22 -48.5 0 0 113.21 9.87
  L 112.52 9.26
  A 8.79 8.22 -48.5 0 0 100.54 10.40
  L 97.50 13.83
  A 0.68 0.68 0.0 0 0 97.56 14.79
  Z
  M 20.67 111.69
  L 32.73 121.32
  A 0.91 0.91 0.0 0 0 34.01 121.18
  L 103.04 34.71
  A 3.98 0.85 -51.4 0 0 104.86 31.07
  L 92.70 21.36
  A 3.98 0.85 -51.4 0 0 89.55 23.94
  L 20.52 110.41
  A 0.91 0.91 0.0 0 0 20.67 111.69
  Z
  M 27.19 127.40
  A 0.30 0.30 0.0 0 0 27.22 126.91
  L 16.01 117.76
  A 0.30 0.30 0.0 0 0 15.53 117.91
  L 10.23 138.13
  A 0.30 0.30 0.0 0 0 10.69 138.46
  L 27.19 127.40
  Z"
/>
<path fill="#373737" d="
  M 147.00 150.76
  L 147.00 151.31
  L 146.40 152.71
  Q 146.22 153.14 145.84 153.41
  Q 142.23 155.94 139.57 152.67
  Q 134.50 146.45 128.04 143.68
  C 111.57 136.61 99.76 157.68 84.11 152.76
  C 74.65 149.79 71.74 139.25 59.78 142.12
  Q 52.22 143.94 46.51 147.01
  C 40.61 150.18 25.67 156.55 20.82 150.94
  C 18.96 148.78 19.43 145.48 22.42 144.84
  C 24.35 144.43 26.75 145.62 28.75 145.25
  C 42.46 142.71 57.12 129.15 71.64 135.25
  C 76.28 137.20 80.55 141.81 84.58 144.45
  C 90.38 148.24 100.82 141.14 109.06 137.06
  C 114.30 134.46 121.15 133.58 126.98 135.04
  Q 140.19 138.34 147.00 150.76
  Z"
/>
</svg>
