<?xml version="1.0" encoding="UTF-8" standalone="no"?>
<!DOCTYPE svg PUBLIC "-//W3C//DTD SVG 1.0//EN" "http://www.w3.org/TR/2001/REC-SVG-20010904/DTD/svg10.dtd">
<svg xmlns="http://www.w3.org/2000/svg" version="1.0" viewBox="0.00 0.00 123.00 164.00">
<path fill="#373737" d="
  M 1.81 0.00
  L 7.06 0.00
  Q 18.44 0.63 29.81 0.00
  L 102.06 0.00
  Q 104.28 1.04 104.27 3.75
  Q 104.24 31.61 103.90 42.18
  C 103.74 47.44 96.04 47.68 96.10 40.92
  Q 96.25 24.44 96.33 7.90
  Q 96.34 7.32 95.75 7.32
  L 8.06 8.15
  A 1.03 1.02 -0.8 0 0 7.04 9.19
  L 9.55 155.77
  Q 9.56 156.24 10.03 156.23
  L 96.46 155.19
  A 0.39 0.39 0.0 0 0 96.84 154.80
  Q 96.50 140.15 96.22 125.50
  C 96.09 118.81 104.08 118.96 104.18 125.31
  Q 104.42 141.28 104.76 157.24
  C 104.90 164.07 98.00 163.24 93.50 163.26
  Q 56.59 163.41 19.69 164.00
  L 7.94 164.00
  C 3.32 162.92 1.78 160.21 1.70 155.44
  Q 0.94 108.44 0.00 61.44
  L 0.00 2.44
  L 1.81 0.00
  Z"
/>
<path fill="#373737" d="
  M 106.48 90.85
  Q 80.61 90.52 54.75 90.81
  Q 52.88 90.83 51.07 88.53
  Q 50.80 88.18 50.77 87.73
  Q 50.51 82.72 55.32 82.76
  Q 81.53 82.96 107.74 83.02
  A 0.36 0.36 0.0 0 0 107.96 82.38
  Q 97.97 74.32 88.50 65.76
  C 84.45 62.11 89.84 56.79 94.72 60.98
  Q 107.52 71.97 120.42 82.85
  Q 125.07 86.78 119.91 90.94
  Q 106.34 101.89 92.58 112.61
  C 88.17 116.04 82.99 110.73 88.10 106.44
  Q 97.27 98.75 106.62 91.28
  Q 107.15 90.86 106.48 90.85
  Z"
/>
</svg>
