<?xml version="1.0" encoding="UTF-8" standalone="no"?>
<!DOCTYPE svg PUBLIC "-//W3C//DTD SVG 1.0//EN" "http://www.w3.org/TR/2001/REC-SVG-20010904/DTD/svg10.dtd">
<svg xmlns="http://www.w3.org/2000/svg" version="1.0" viewBox="0.00 0.00 183.00 95.00">
<path fill="#373737" d="
  M 145.69 95.00
  L 64.19 95.00
  C 58.12 94.38 58.50 87.00 63.81 87.05
  Q 96.88 87.40 129.95 87.21
  Q 146.43 87.12 148.64 86.78
  C 163.49 84.51 179.31 72.85 174.00 55.92
  C 168.79 39.34 150.73 35.31 135.50 35.42
  Q 83.53 35.78 31.56 36.21
  C 24.58 36.26 18.89 36.08 13.47 37.46
  Q 12.85 37.62 13.33 38.04
  Q 23.81 47.27 34.21 56.50
  C 39.75 61.41 35.30 67.51 30.28 63.22
  Q 13.54 48.90 1.96 38.28
  C -0.76 35.78 1.22 32.50 3.66 30.16
  Q 24.45 10.22 31.34 3.35
  C 36.14 -1.43 42.00 3.89 36.41 9.34
  Q 26.64 18.87 16.77 28.35
  A 0.26 0.26 0.0 0 0 16.96 28.79
  C 54.66 27.06 92.74 27.78 130.50 27.54
  Q 145.15 27.45 150.44 28.48
  C 167.37 31.81 184.03 45.02 182.82 64.15
  C 181.66 82.67 162.85 93.92 145.69 95.00
  Z"
/>
</svg>
