<?xml version="1.0" encoding="UTF-8" standalone="no"?>
<!DOCTYPE svg PUBLIC "-//W3C//DTD SVG 1.0//EN" "http://www.w3.org/TR/2001/REC-SVG-20010904/DTD/svg10.dtd">
<svg xmlns="http://www.w3.org/2000/svg" version="1.0" viewBox="0.00 0.00 178.00 147.00">
<path fill="#373737" d="
  M 97.31 0.00
  L 118.31 0.00
  C 119.89 0.72 120.90 2.16 120.97 4.00
  Q 121.50 16.86 121.51 29.58
  Q 121.52 30.09 122.02 30.09
  Q 149.01 29.98 175.93 29.72
  Q 176.95 29.71 178.00 30.81
  L 178.00 117.16
  L 122.07 117.55
  A 0.91 0.91 0.0 0 0 121.17 118.47
  Q 121.27 129.84 121.24 139.93
  C 121.23 143.43 120.30 145.69 116.49 145.70
  Q 90.70 145.75 64.88 145.75
  C 61.31 145.75 58.74 144.58 58.74 140.73
  Q 58.70 124.57 58.54 118.26
  Q 58.52 117.70 57.98 117.61
  C 56.05 117.26 53.66 117.75 52.33 117.77
  Q 26.14 118.29 0.00 116.99
  L 0.00 32.19
  Q 1.63 30.27 3.57 30.27
  Q 30.36 30.23 56.50 30.25
  Q 57.61 30.26 57.56 29.15
  Q 57.00 17.38 56.71 7.00
  C 56.60 2.95 58.41 1.17 62.52 1.08
  Q 79.93 0.70 97.31 0.00
  Z
  M 65.38 29.99
  A 0.33 0.33 0.0 0 0 65.71 30.31
  L 113.54 30.00
  A 0.33 0.33 0.0 0 0 113.87 29.66
  L 113.34 7.80
  A 0.33 0.33 0.0 0 0 113.00 7.48
  L 65.11 8.81
  A 0.33 0.33 0.0 0 0 64.79 9.15
  L 65.38 29.99
  Z
  M 58.07 87.77
  C 58.65 84.27 57.28 80.69 63.00 80.73
  Q 89.26 80.94 115.50 80.19
  C 118.31 80.11 120.02 81.90 120.17 84.77
  Q 120.79 96.49 120.77 109.26
  A 0.50 0.49 90.0 0 0 121.26 109.76
  L 172.25 109.74
  Q 172.75 109.74 172.75 109.25
  L 172.75 38.26
  A 0.46 0.46 0.0 0 0 172.28 37.80
  C 152.54 38.39 133.02 38.11 113.51 38.14
  Q 59.89 38.23 6.29 38.28
  Q 5.81 38.28 5.80 38.77
  L 5.43 109.22
  Q 5.43 109.76 5.97 109.76
  L 57.26 109.75
  Q 58.23 109.75 58.16 108.78
  C 57.68 102.48 56.99 94.23 58.07 87.77
  Z
  M 112.47 87.97
  L 65.96 88.62
  A 0.27 0.27 0.0 0 0 65.69 88.89
  L 66.36 136.61
  A 1.61 0.25 89.2 0 0 66.63 138.21
  L 113.18 137.56
  A 1.61 0.25 89.2 0 0 113.41 135.95
  L 112.75 88.23
  A 0.27 0.27 0.0 0 0 112.47 87.97
  Z"
/>
<rect fill="#373737" x="37.19" y="50.02" width="104.30" height="7.96" rx="3.94"/>
</svg>
