<?xml version="1.0" encoding="UTF-8" standalone="no"?>
<!DOCTYPE svg PUBLIC "-//W3C//DTD SVG 1.0//EN" "http://www.w3.org/TR/2001/REC-SVG-20010904/DTD/svg10.dtd">
<svg xmlns="http://www.w3.org/2000/svg" version="1.0" viewBox="0.00 0.00 149.00 167.00">
<path fill="#373737" d="
  M 72.56 0.00
  L 78.56 0.00
  C 104.88 2.29 123.50 26.87 123.46 52.31
  A 0.24 0.24 0.0 0 0 123.70 52.55
  Q 133.11 52.46 142.57 52.76
  C 145.90 52.86 148.39 54.80 148.44 58.07
  Q 148.79 80.69 149.00 103.31
  L 149.00 164.31
  Q 147.56 166.81 144.00 166.80
  Q 79.62 166.60 15.23 166.01
  C 10.77 165.97 0.99 168.95 0.91 161.70
  Q 0.60 131.32 0.00 100.94
  L 0.00 55.19
  Q 1.92 52.11 5.21 52.08
  Q 16.01 51.96 27.05 52.01
  Q 27.60 52.01 27.60 51.46
  C 27.70 26.40 46.56 2.13 72.56 0.00
  Z
  M 35.76 52.18
  L 115.16 52.46
  A 0.24 0.24 0.0 0 0 115.40 52.22
  L 115.40 52.08
  A 43.78 39.83 -89.8 0 0 75.73 8.16
  L 75.51 8.16
  A 43.78 39.83 -89.8 0 0 35.52 51.80
  L 35.52 51.94
  A 0.24 0.24 0.0 0 0 35.76 52.18
  Z
  M 140.68 60.79
  A 0.40 0.40 0.0 0 0 140.28 60.39
  L 7.80 59.91
  A 0.40 0.40 0.0 0 0 7.40 60.32
  L 8.68 157.85
  A 0.40 0.40 0.0 0 0 9.08 158.24
  L 141.06 159.00
  A 0.40 0.40 0.0 0 0 141.47 158.59
  L 140.68 60.79
  Z"
/>
<path fill="#373737" d="
  M 102.43 109.70
  C 103.08 94.42 94.79 82.07 80.38 77.29
  C 63.45 71.67 44.91 82.68 40.84 100.43
  C 40.45 102.15 40.30 104.67 39.74 106.75
  C 38.71 110.58 33.73 110.27 32.57 106.85
  Q 32.09 105.44 32.49 102.62
  Q 35.50 81.36 54.47 71.94
  C 82.02 58.26 114.47 81.89 109.83 112.65
  A 0.32 0.31 72.5 0 0 110.36 112.93
  C 112.83 110.56 120.32 104.98 122.95 109.52
  C 125.50 113.91 118.11 116.40 115.66 118.56
  Q 109.99 123.57 106.20 125.22
  C 98.75 128.47 93.51 109.69 91.86 105.23
  C 89.54 98.93 96.39 96.67 98.68 101.57
  Q 100.53 105.52 101.78 109.78
  A 0.33 0.33 0.0 0 0 102.43 109.70
  Z"
/>
<path fill="#373737" d="
  M 36.66 130.98
  C 35.56 134.89 36.38 138.68 35.17 141.71
  C 33.60 145.64 29.03 144.28 28.02 140.74
  C 26.86 136.65 29.06 128.18 30.26 123.61
  C 31.96 117.11 32.37 109.76 41.59 115.46
  Q 46.50 118.49 51.84 120.66
  C 54.58 121.77 60.12 124.09 60.28 127.50
  Q 60.36 129.23 58.63 130.35
  C 54.58 132.94 47.34 127.42 43.86 125.59
  Q 43.25 125.28 43.53 125.90
  C 52.54 145.90 77.23 147.67 92.66 134.55
  C 94.71 132.80 96.82 130.29 98.96 128.17
  A 1.66 1.64 37.2 0 1 100.93 127.91
  Q 106.41 131.00 102.25 135.75
  C 83.97 156.66 51.26 156.40 36.99 130.94
  Q 36.78 130.56 36.66 130.98
  Z"
/>
</svg>
