<?xml version="1.0" encoding="UTF-8" standalone="no"?>
<!DOCTYPE svg PUBLIC "-//W3C//DTD SVG 1.0//EN" "http://www.w3.org/TR/2001/REC-SVG-20010904/DTD/svg10.dtd">
<svg xmlns="http://www.w3.org/2000/svg" version="1.0" viewBox="0.00 0.00 167.00 154.00">
<ellipse fill="#373737" cx="0.00" cy="0.00" transform="translate(9.75,9.13) rotate(86.6)" rx="7.98" ry="7.57"/>
<path fill="#373737" d="
  M 167.00 8.81
  L 167.00 12.31
  Q 165.66 14.30 162.50 14.29
  Q 81.25 13.96 44.06 13.44
  C 38.60 13.37 38.37 5.69 45.28 5.71
  Q 122.39 5.90 163.94 6.59
  Q 165.94 6.62 167.00 8.81
  Z"
/>
<ellipse fill="#373737" cx="0.00" cy="0.00" transform="translate(9.75,79.13) rotate(86.2)" rx="8.00" ry="7.57"/>
<rect fill="#373737" x="-61.68" y="-3.94" transform="translate(102.45,78.72) rotate(0.3)" width="123.36" height="7.88" rx="3.89"/>
<path fill="#373737" d="
  M 12.94 154.00
  L 11.19 154.00
  Q 3.30 152.62 4.31 144.83
  C 5.47 135.88 17.62 136.14 19.18 144.54
  Q 20.57 152.01 12.94 154.00
  Z"
/>
<rect fill="#373737" x="-63.49" y="-3.94" transform="translate(101.88,148.01) rotate(0.4)" width="126.98" height="7.88" rx="3.89"/>
</svg>
