<?xml version="1.0" encoding="UTF-8" standalone="no"?>
<!DOCTYPE svg PUBLIC "-//W3C//DTD SVG 1.0//EN" "http://www.w3.org/TR/2001/REC-SVG-20010904/DTD/svg10.dtd">
<svg xmlns="http://www.w3.org/2000/svg" version="1.0" viewBox="0.00 0.00 180.00 165.00">
<path fill="#373737" d="
  M 163.16 78.24
  Q 167.58 71.12 172.14 64.16
  C 174.98 59.83 181.63 63.77 177.90 69.70
  Q 172.09 78.92 166.17 88.08
  Q 164.48 90.69 163.17 91.34
  C 158.60 93.65 146.14 81.21 142.75 77.66
  C 140.88 75.69 137.45 72.53 136.57 69.94
  C 135.06 65.53 140.14 62.28 142.82 65.89
  Q 147.84 72.65 154.36 77.66
  A 0.28 0.28 0.0 0 0 154.81 77.41
  C 150.86 38.77 119.69 8.61 79.94 9.82
  C 43.46 10.92 14.17 37.95 9.36 74.32
  Q 8.64 79.78 9.52 94.01
  C 9.65 96.08 8.92 97.44 7.00 98.05
  C 2.68 99.42 1.86 94.34 1.02 91.76
  Q 0.87 91.32 0.90 90.85
  Q 1.05 88.42 1.06 82.27
  C 1.17 20.55 69.73 -18.82 122.91 13.21
  Q 158.47 34.64 162.74 78.14
  A 0.23 0.23 0.0 0 0 163.16 78.24
  Z"
/>
<path fill="#373737" d="
  M 12.36 124.75
  Q 11.91 130.40 12.74 135.99
  C 13.94 144.05 4.04 143.94 4.77 135.25
  C 5.22 129.80 1.47 111.73 4.49 108.23
  Q 6.64 105.73 10.58 106.93
  Q 22.15 110.45 33.78 113.92
  C 40.05 115.79 38.35 123.43 30.76 121.18
  Q 24.53 119.34 18.47 117.46
  A 0.44 0.43 83.2 0 0 17.97 118.10
  Q 35.71 147.68 68.18 154.26
  C 105.08 161.74 141.07 138.93 151.78 103.33
  Q 151.93 102.84 152.37 102.59
  C 155.24 101.01 158.69 99.57 159.91 104.02
  Q 160.04 104.50 159.86 104.97
  C 157.82 110.17 155.81 115.75 153.30 120.37
  C 123.03 176.09 46.92 177.78 12.82 124.63
  Q 12.41 124.00 12.36 124.75
  Z"
/>
</svg>
