<?xml version="1.0" encoding="UTF-8" standalone="no"?>
<!DOCTYPE svg PUBLIC "-//W3C//DTD SVG 1.0//EN" "http://www.w3.org/TR/2001/REC-SVG-20010904/DTD/svg10.dtd">
<svg xmlns="http://www.w3.org/2000/svg" version="1.0" viewBox="0.00 0.00 178.00 175.00">
<path fill="#373737" d="
  M 76.69 0.00
  L 102.66 0.00
  Q 106.23 10.67 108.13 21.81
  Q 108.21 22.29 108.65 22.51
  L 125.12 30.59
  Q 125.38 30.72 125.61 30.54
  L 142.06 18.18
  Q 142.55 17.81 143.10 18.09
  Q 145.52 19.36 146.34 20.16
  Q 153.45 27.04 160.73 33.31
  A 1.47 1.47 0.0 0 1 160.99 35.24
  L 148.60 53.93
  Q 148.31 54.37 148.49 54.87
  L 154.02 69.91
  Q 154.22 70.46 154.80 70.54
  Q 161.74 71.54 168.54 73.30
  C 171.47 74.07 176.48 73.41 178.00 77.31
  L 178.00 99.93
  Q 168.19 104.43 159.75 105.02
  Q 156.50 105.25 154.60 105.88
  Q 154.23 106.01 154.07 106.37
  L 148.15 120.19
  A 1.36 1.36 0.0 0 0 148.31 121.54
  Q 152.53 127.13 156.61 132.81
  C 158.75 135.80 160.70 138.28 158.28 141.25
  Q 152.48 148.36 146.74 155.53
  C 145.84 156.65 144.30 157.65 143.04 156.95
  Q 136.04 153.10 125.07 144.58
  Q 124.60 144.21 124.04 144.45
  L 109.79 150.68
  Q 109.25 150.92 109.10 151.49
  C 107.10 158.85 104.81 165.92 102.46 173.19
  Q 102.17 174.08 100.69 175.00
  L 78.44 175.00
  Q 75.92 172.41 75.31 168.96
  C 74.81 166.11 72.16 152.95 70.48 152.22
  Q 63.84 149.30 57.20 146.53
  Q 56.76 146.34 56.34 146.60
  Q 47.76 152.02 38.98 157.18
  C 36.54 158.61 34.56 159.09 32.51 156.96
  Q 28.79 153.11 18.26 141.58
  Q 17.91 141.19 18.08 140.70
  Q 18.64 139.07 19.68 137.67
  Q 25.45 129.87 30.90 121.89
  A 1.50 1.49 -39.5 0 0 31.04 120.48
  L 25.49 107.32
  A 1.65 1.65 0.0 0 0 24.37 106.36
  Q 13.51 103.66 3.00 101.74
  Q 1.31 101.43 0.00 99.44
  L 0.00 79.69
  C 0.36 75.96 -0.18 74.33 4.02 73.34
  Q 14.05 70.97 24.19 69.07
  Q 24.72 68.97 24.90 68.46
  Q 27.13 62.05 30.74 56.32
  A 2.10 2.08 -42.8 0 0 30.83 54.26
  Q 25.67 44.35 19.00 35.37
  A 2.45 2.44 -39.8 0 1 19.30 32.11
  L 35.15 17.38
  A 2.64 2.63 39.5 0 1 38.35 17.08
  L 56.71 28.55
  Q 57.16 28.84 57.66 28.64
  C 59.64 27.88 70.06 24.02 70.34 22.57
  Q 72.53 10.98 76.69 0.00
  Z
  M 131.36 86.61
  A 42.12 42.12 0.0 0 0 89.24 44.49
  A 42.12 42.12 0.0 0 0 47.12 86.61
  A 42.12 42.12 0.0 0 0 89.24 128.73
  A 42.12 42.12 0.0 0 0 131.36 86.61
  Z"
/>
<circle fill="#373737" cx="88.47" cy="86.75" r="19.90"/>
</svg>
